<svg xmlns="http://www.w3.org/2000/svg" xmlns:xlink="http://www.w3.org/1999/xlink" width="1980" zoomAndPan="magnify" viewBox="0 0 1485 809.999993" height="1080" preserveAspectRatio="xMidYMid meet" version="1.0"><defs><clipPath id="5dd2d4590e"><path d="M 0 105.214844 L 1485 105.214844 L 1485 704 L 0 704 Z M 0 105.214844 " clip-rule="nonzero"/></clipPath></defs><g clip-path="url(#5dd2d4590e)"><path fill="#000000" d="M 1465.367188 428.992188 C 1464.375 428.96875 1463.382812 429.015625 1462.394531 429.128906 C 1461.40625 429.242188 1460.429688 429.421875 1459.464844 429.667969 C 1458.5 429.914062 1457.558594 430.226562 1456.636719 430.601562 C 1455.714844 430.980469 1454.824219 431.414062 1453.964844 431.914062 C 1453.101562 432.410156 1452.277344 432.964844 1451.492188 433.574219 C 1450.707031 434.1875 1449.96875 434.847656 1449.273438 435.558594 C 1448.578125 436.269531 1447.933594 437.027344 1447.339844 437.824219 C 1446.75 438.625 1446.214844 439.460938 1445.738281 440.335938 L 1044.386719 440.335938 C 1041.863281 440.128906 1039.367188 440.320312 1036.90625 440.917969 C 1034.445312 441.515625 1032.140625 442.484375 1029.988281 443.824219 C 1026.730469 447.199219 1024.40625 451.125 1023.007812 455.605469 C 1023.007812 455.605469 1013.847656 480.46875 997.269531 528.023438 C 980.695312 449.058594 968.914062 371.84375 955.828125 294.191406 C 953.644531 281.539062 934.015625 280.667969 930.523438 293.320312 C 920.054688 336.070312 910.019531 379.261719 900.859375 422.449219 C 898.242188 433.355469 893.441406 437.28125 882.101562 437.28125 C 852.871094 437.28125 823.207031 439.460938 793.976562 439.027344 C 790.535156 438.769531 787.136719 439.050781 783.78125 439.871094 C 780.429688 440.691406 777.285156 442.007812 774.347656 443.824219 C 771.929688 445.902344 769.933594 448.328125 768.363281 451.097656 C 766.789062 453.871094 765.730469 456.828125 765.183594 459.964844 C 756.023438 489.195312 748.609375 516.679688 748.609375 516.679688 C 748.609375 516.679688 735.519531 561.175781 710.21875 645.375 C 709.054688 640.628906 708.183594 635.828125 707.601562 630.976562 C 706.726562 623.5625 706.292969 618.324219 706.292969 615.707031 C 697.566406 526.714844 694.949219 517.117188 685.789062 436.410156 C 673.574219 329.527344 661.792969 223.082031 649.578125 116.199219 C 649.507812 115.519531 649.378906 114.847656 649.191406 114.1875 C 649.007812 113.527344 648.761719 112.890625 648.464844 112.273438 C 648.167969 111.65625 647.816406 111.070312 647.414062 110.511719 C 647.015625 109.957031 646.570312 109.441406 646.078125 108.960938 C 645.585938 108.484375 645.058594 108.050781 644.492188 107.667969 C 643.925781 107.28125 643.328125 106.945312 642.703125 106.664062 C 642.078125 106.382812 641.433594 106.15625 640.769531 105.988281 C 640.105469 105.820312 639.429688 105.710938 638.746094 105.65625 C 638.0625 105.605469 637.382812 105.613281 636.699219 105.679688 C 636.015625 105.75 635.347656 105.875 634.6875 106.058594 C 634.027344 106.246094 633.386719 106.484375 632.769531 106.78125 C 632.148438 107.078125 631.5625 107.425781 631.003906 107.824219 C 630.449219 108.222656 629.929688 108.667969 629.449219 109.15625 C 628.96875 109.648438 628.535156 110.175781 628.148438 110.738281 C 627.761719 111.304688 627.425781 111.898438 627.140625 112.523438 C 626.855469 113.148438 626.628906 113.792969 626.457031 114.457031 L 626.019531 114.457031 C 620.785156 134.523438 617.296875 155.464844 613.371094 175.96875 C 596.792969 257.546875 580.214844 339.125 564.507812 421.140625 C 561.890625 435.101562 555.785156 440.773438 541.386719 439.898438 C 519.140625 438.589844 496.890625 439.027344 475.078125 439.898438 C 461.992188 440.335938 456.753906 435.101562 454.136719 422.886719 C 448.902344 394.527344 442.359375 366.171875 435.816406 338.253906 L 435.378906 338.253906 C 434.980469 337.074219 434.421875 335.976562 433.710938 334.957031 C 432.996094 333.9375 432.15625 333.039062 431.1875 332.261719 C 430.214844 331.480469 429.15625 330.855469 428.007812 330.375 C 426.859375 329.898438 425.667969 329.59375 424.433594 329.457031 C 423.195312 329.316406 421.964844 329.355469 420.742188 329.570312 C 419.515625 329.78125 418.34375 330.164062 417.226562 330.710938 C 416.109375 331.257812 415.09375 331.949219 414.175781 332.789062 C 413.253906 333.625 412.46875 334.574219 411.820312 335.636719 L 410.511719 338.253906 L 400.042969 377.515625 C 391.027344 410.671875 382.300781 443.824219 373.867188 476.980469 C 367.761719 498.792969 359.90625 529.765625 349.875 566.847656 C 336.785156 504.027344 298.832031 313.824219 292.726562 294.191406 C 292.105469 292.402344 291.378906 290.65625 290.542969 288.957031 C 290.304688 288.488281 290.03125 288.039062 289.734375 287.605469 C 289.433594 287.171875 289.109375 286.757812 288.757812 286.367188 C 288.402344 285.976562 288.027344 285.609375 287.628906 285.269531 C 287.226562 284.925781 286.808594 284.609375 286.367188 284.324219 C 285.925781 284.035156 285.46875 283.777344 284.996094 283.546875 C 284.519531 283.316406 284.03125 283.121094 283.535156 282.953125 C 283.035156 282.789062 282.527344 282.65625 282.007812 282.554688 C 281.492188 282.457031 280.972656 282.390625 280.445312 282.355469 C 279.921875 282.324219 279.394531 282.324219 278.871094 282.359375 C 278.34375 282.394531 277.824219 282.464844 277.308594 282.566406 C 276.789062 282.667969 276.28125 282.804688 275.785156 282.972656 C 275.285156 283.140625 274.800781 283.339844 274.324219 283.570312 C 273.851562 283.800781 273.394531 284.0625 272.957031 284.351562 C 272.519531 284.640625 272.097656 284.957031 271.699219 285.300781 C 271.300781 285.644531 270.925781 286.015625 270.574219 286.40625 C 270.226562 286.800781 269.902344 287.214844 269.605469 287.648438 C 268.40625 289.746094 267.386719 291.925781 266.550781 294.191406 C 254.769531 336.070312 243.863281 377.953125 233.832031 420.703125 C 230.339844 436.410156 223.359375 440.335938 207.65625 440.335938 C 151.378906 439.460938 95.101562 439.898438 39.261719 439.898438 C 38.226562 438.230469 36.996094 436.71875 35.570312 435.367188 C 34.148438 434.011719 32.578125 432.855469 30.859375 431.902344 C 29.144531 430.949219 27.332031 430.226562 25.429688 429.730469 C 23.53125 429.238281 21.597656 428.992188 19.632812 428.992188 C 18.289062 429.179688 16.972656 429.488281 15.679688 429.910156 C 14.390625 430.335938 13.152344 430.871094 11.957031 431.515625 C 10.765625 432.164062 9.640625 432.910156 8.578125 433.761719 C 7.519531 434.609375 6.546875 435.546875 5.65625 436.570312 C 4.765625 437.59375 3.972656 438.6875 3.277344 439.855469 C 2.582031 441.019531 2 442.238281 1.523438 443.511719 C 1.046875 444.78125 0.6875 446.085938 0.445312 447.421875 C 0.207031 448.757812 0.0859375 450.101562 0.0859375 451.460938 C 0.0859375 452.816406 0.207031 454.164062 0.445312 455.5 C 0.6875 456.835938 1.046875 458.136719 1.523438 459.410156 C 2 460.679688 2.582031 461.898438 3.277344 463.066406 C 3.972656 464.230469 4.765625 465.324219 5.65625 466.351562 C 6.546875 467.375 7.519531 468.308594 8.578125 469.160156 C 9.640625 470.007812 10.765625 470.753906 11.957031 471.402344 C 13.152344 472.050781 14.390625 472.585938 15.679688 473.007812 C 16.972656 473.433594 18.289062 473.738281 19.632812 473.925781 C 20.648438 473.921875 21.660156 473.851562 22.671875 473.714844 C 23.679688 473.578125 24.671875 473.375 25.652344 473.105469 C 26.636719 472.839844 27.59375 472.507812 28.53125 472.109375 C 29.46875 471.714844 30.378906 471.261719 31.253906 470.746094 C 32.132812 470.230469 32.972656 469.660156 33.773438 469.035156 C 34.578125 468.410156 35.335938 467.734375 36.046875 467.007812 C 36.761719 466.28125 37.421875 465.511719 38.035156 464.699219 C 38.644531 463.882812 39.199219 463.035156 39.699219 462.148438 C 100.773438 461.710938 161.414062 460.839844 222.488281 461.710938 C 226.097656 461.949219 229.652344 461.625 233.15625 460.726562 C 236.660156 459.832031 239.941406 458.417969 242.992188 456.476562 C 245.574219 453.984375 247.652344 451.128906 249.226562 447.90625 C 250.800781 444.679688 251.777344 441.285156 252.152344 437.71875 C 256.953125 409.796875 270.476562 360.5 277.457031 334.324219 C 280.074219 344.359375 284 358.320312 285.308594 364.425781 C 308.867188 476.980469 318.898438 525.402344 335.476562 603.492188 C 335.914062 603.929688 335.914062 603.929688 335.914062 604.367188 C 336.109375 605.050781 336.355469 605.714844 336.65625 606.359375 C 336.953125 607.007812 337.300781 607.625 337.699219 608.214844 C 338.097656 608.804688 338.535156 609.363281 339.023438 609.882812 C 339.507812 610.402344 340.027344 610.882812 340.589844 611.320312 C 341.148438 611.761719 341.742188 612.152344 342.363281 612.496094 C 342.984375 612.84375 343.632812 613.136719 344.300781 613.378906 C 344.96875 613.625 345.652344 613.8125 346.351562 613.949219 C 347.050781 614.082031 347.753906 614.164062 348.464844 614.1875 C 349.175781 614.210938 349.886719 614.179688 350.589844 614.09375 C 351.296875 614.003906 351.992188 613.863281 352.675781 613.664062 C 353.359375 613.464844 354.023438 613.21875 354.667969 612.914062 C 355.3125 612.613281 355.929688 612.261719 356.515625 611.863281 C 357.105469 611.460938 357.660156 611.019531 358.179688 610.53125 C 358.699219 610.046875 359.175781 609.519531 359.609375 608.957031 C 360.046875 608.394531 360.4375 607.800781 360.777344 607.179688 C 361.121094 606.554688 361.414062 605.90625 361.652344 605.238281 C 378.667969 543.289062 388.265625 509.699219 413.566406 409.796875 L 421.855469 378.824219 C 425.34375 392.785156 432.761719 421.140625 436.6875 443.390625 C 436.898438 446.144531 437.605469 448.765625 438.808594 451.25 C 440.015625 453.734375 441.636719 455.914062 443.667969 457.785156 C 445.9375 459.234375 448.378906 460.296875 450.988281 460.96875 C 453.597656 461.640625 456.25 461.886719 458.9375 461.710938 C 491.21875 461.273438 523.066406 460.839844 554.914062 462.148438 C 572.796875 462.582031 579.777344 456.476562 582.832031 439.027344 C 596.792969 364.425781 612.496094 289.828125 627.328125 215.230469 C 627.328125 214.792969 627.765625 213.046875 628.203125 210.867188 C 631.691406 196.46875 633.875 188.617188 635.617188 182.945312 C 636.492188 191.234375 637.363281 200.398438 638.671875 209.558594 C 669.210938 466.074219 681.863281 594.332031 683.171875 604.367188 C 686.660156 634.46875 689.277344 664.132812 693.640625 693.796875 C 693.785156 694.898438 694.082031 695.957031 694.535156 696.96875 C 694.988281 697.980469 695.578125 698.910156 696.304688 699.75 C 697.027344 700.589844 697.859375 701.308594 698.796875 701.902344 C 699.734375 702.5 700.734375 702.949219 701.804688 703.25 C 702.871094 703.554688 703.960938 703.695312 705.070312 703.675781 C 706.179688 703.660156 707.265625 703.480469 708.324219 703.144531 C 709.382812 702.808594 710.367188 702.328125 711.285156 701.703125 C 712.203125 701.078125 713.007812 700.332031 713.707031 699.46875 C 715.113281 698.207031 716.277344 696.753906 717.199219 695.105469 C 718.746094 692.382812 719.765625 689.476562 720.25 686.382812 C 740.753906 617.015625 762.132812 548.089844 782.199219 478.289062 C 786.125 464.765625 793.105469 459.964844 806.628906 460.402344 C 831.933594 460.839844 857.234375 459.09375 882.101562 458.65625 C 899.113281 458.65625 907.402344 458.222656 912.203125 454.296875 C 917 450.367188 913.511719 452.988281 913.949219 452.550781 C 920.492188 444.699219 920.492188 437.28125 922.234375 425.9375 C 923.980469 414.597656 926.597656 406.742188 928.78125 397.144531 L 931.398438 385.804688 C 934.886719 371.40625 938.378906 357.882812 941.429688 347.414062 C 942.738281 353.519531 944.484375 360.5 944.921875 363.992188 C 958.882812 443.824219 966.296875 500.972656 978.949219 574.699219 C 979.117188 575.371094 979.332031 576.023438 979.597656 576.664062 C 979.867188 577.300781 980.179688 577.914062 980.542969 578.503906 C 980.902344 579.089844 981.304688 579.648438 981.753906 580.175781 C 982.199219 580.703125 982.683594 581.195312 983.207031 581.648438 C 983.726562 582.101562 984.28125 582.511719 984.863281 582.878906 C 985.449219 583.25 986.058594 583.570312 986.691406 583.84375 C 987.328125 584.121094 987.976562 584.34375 988.648438 584.519531 C 989.316406 584.695312 989.992188 584.816406 990.679688 584.890625 C 991.367188 584.960938 992.058594 584.980469 992.746094 584.945312 C 993.4375 584.910156 994.121094 584.824219 994.796875 584.683594 C 995.476562 584.542969 996.136719 584.355469 996.785156 584.113281 C 997.433594 583.871094 998.058594 583.582031 998.664062 583.246094 C 999.265625 582.910156 999.839844 582.53125 1000.386719 582.105469 C 1000.929688 581.679688 1001.441406 581.214844 1001.914062 580.714844 C 1002.386719 580.210938 1002.820312 579.675781 1003.210938 579.105469 C 1003.605469 578.535156 1003.949219 577.941406 1004.25 577.316406 C 1016.464844 544.164062 1028.246094 510.570312 1038.714844 476.542969 C 1042.640625 463.894531 1049.183594 460.839844 1061.398438 460.839844 C 1091.5 461.710938 1121.167969 461.273438 1151.703125 461.273438 L 1444.863281 461.273438 C 1445.308594 462.253906 1445.816406 463.195312 1446.394531 464.101562 C 1446.976562 465.007812 1447.617188 465.863281 1448.320312 466.675781 C 1449.023438 467.488281 1449.78125 468.246094 1450.59375 468.949219 C 1451.40625 469.652344 1452.265625 470.292969 1453.171875 470.867188 C 1454.074219 471.445312 1455.019531 471.957031 1455.996094 472.398438 C 1456.976562 472.839844 1457.980469 473.207031 1459.015625 473.503906 C 1460.046875 473.800781 1461.097656 474.019531 1462.160156 474.164062 C 1463.226562 474.308594 1464.292969 474.375 1465.367188 474.363281 C 1466.714844 474.175781 1468.03125 473.867188 1469.320312 473.445312 C 1470.609375 473.019531 1471.847656 472.484375 1473.042969 471.839844 C 1474.234375 471.191406 1475.363281 470.445312 1476.421875 469.59375 C 1477.480469 468.746094 1478.453125 467.808594 1479.34375 466.785156 C 1480.234375 465.761719 1481.027344 464.667969 1481.722656 463.5 C 1482.417969 462.335938 1483 461.117188 1483.476562 459.84375 C 1483.953125 458.574219 1484.3125 457.269531 1484.554688 455.933594 C 1484.792969 454.597656 1484.914062 453.253906 1484.914062 451.894531 C 1484.914062 450.539062 1484.792969 449.191406 1484.554688 447.855469 C 1484.3125 446.523438 1483.953125 445.21875 1483.476562 443.945312 C 1483 442.675781 1482.417969 441.457031 1481.722656 440.289062 C 1481.027344 439.125 1480.234375 438.03125 1479.34375 437.003906 C 1478.453125 435.980469 1477.480469 435.046875 1476.421875 434.195312 C 1475.363281 433.347656 1474.234375 432.601562 1473.042969 431.953125 C 1471.847656 431.304688 1470.609375 430.769531 1469.320312 430.347656 C 1468.03125 429.921875 1466.714844 429.617188 1465.367188 429.429688 Z M 939.25 338.253906 C 939.128906 338.253906 939.027344 338.210938 938.941406 338.125 C 938.855469 338.039062 938.8125 337.9375 938.8125 337.816406 C 938.933594 337.816406 939.035156 337.859375 939.121094 337.945312 C 939.207031 338.027344 939.25 338.132812 939.25 338.253906 Z M 939.25 338.253906 " fill-opacity="1" fill-rule="nonzero"/></g></svg>